# Blender 4.3.2
# www.blender.org
mtllib map_tile.mtl
o Cube.024
v 0.600000 -0.112609 0.600000
v -0.600000 -0.112609 0.600000
v 0.600000 -0.112609 -0.600000
v -0.600000 -0.112609 -0.600000
v 0.600000 0.112609 0.129889
v 0.129889 0.112609 0.600000
v 0.600000 -0.063853 0.600000
v 0.462308 0.112609 0.462308
v 0.520881 0.082911 0.520881
v 0.462308 0.060924 0.600000
v 0.600000 0.060924 0.462308
v -0.600000 0.112609 0.129889
v -0.600000 -0.063853 0.600000
v -0.129889 0.112609 0.600000
v -0.600000 0.060924 0.462308
v -0.520881 0.082911 0.520881
v -0.462308 0.060924 0.600000
v -0.462308 0.112609 0.462308
v 0.600000 0.112609 -0.129889
v 0.600000 -0.063853 -0.600000
v 0.129889 0.112609 -0.600000
v 0.600000 0.060924 -0.462308
v 0.520881 0.082911 -0.520881
v 0.462308 0.060924 -0.600000
v 0.462308 0.112609 -0.462308
v -0.129889 0.112609 -0.600000
v -0.600000 -0.063853 -0.600000
v -0.600000 0.112609 -0.129889
v -0.462308 0.060924 -0.600000
v -0.520881 0.082911 -0.520881
v -0.600000 0.060924 -0.462308
v -0.462308 0.112609 -0.462308
v -0.690616 -0.112609 0.690616
v 0.690616 -0.112609 0.690616
v -0.690616 -0.112609 -0.690616
v 0.690616 -0.112609 -0.690616
v -0.709089 -0.217870 0.709089
v 0.709089 -0.217870 0.709089
v -0.709089 -0.217870 -0.709089
v 0.709089 -0.217870 -0.709089
vn -0.0000 1.0000 -0.0000
vn -0.0000 -0.0000 -1.0000
vn -0.0000 -0.0000 1.0000
vn -1.0000 -0.0000 -0.0000
vn 0.3478 0.9265 0.1440
vn 0.1440 0.9265 0.3478
vn 0.5575 0.6152 0.5575
vn -0.3478 0.9265 0.1440
vn -0.5575 0.6152 0.5575
vn -0.1440 0.9265 0.3478
vn 0.3478 0.9265 -0.1440
vn 0.5575 0.6152 -0.5575
vn 0.1440 0.9265 -0.3478
vn -0.1440 0.9265 -0.3478
vn -0.5575 0.6152 -0.5575
vn -0.3478 0.9265 -0.1440
vn 1.0000 -0.0000 -0.0000
vn 0.9849 0.1729 -0.0000
vn -0.0000 -1.0000 -0.0000
vn -0.9849 0.1729 -0.0000
vn -0.0000 0.1729 -0.9849
vn -0.0000 0.1729 0.9849
vn 0.3488 0.9292 0.1223
vn 0.1223 0.9292 0.3488
vn 0.5899 0.5513 0.5900
vn -0.3488 0.9292 0.1223
vn -0.5899 0.5513 0.5899
vn -0.1223 0.9292 0.3488
vn 0.3488 0.9292 -0.1223
vn 0.5899 0.5513 -0.5899
vn 0.1223 0.9292 -0.3488
vn -0.1223 0.9292 -0.3488
vn -0.5899 0.5513 -0.5899
vn -0.3488 0.9292 -0.1223
vt 0.685714 0.191162
vt 0.407490 0.278224
vt 0.494552 -0.000000
vt 0.372614 0.505448
vt 0.408657 0.350348
vt 0.529672 0.314286
vt 0.372738 0.505448
vt 0.408781 0.350348
vt 0.529796 0.314286
vt 0.023733 0.709447
vt 0.000000 0.371428
vt 0.023733 0.395161
vt 0.686900 0.191162
vt 0.722943 0.036062
vt 0.843958 0.000000
vt 0.687916 0.350348
vt 0.725145 0.350348
vt 0.689102 0.437410
vt 0.566901 0.592510
vt 0.529672 0.592510
vt 0.530858 0.505448
vt 0.565715 0.628572
vt 0.653916 0.628572
vt 0.722943 0.278224
vt 0.685714 0.278224
vt 0.721757 0.314286
vt 0.809958 0.314286
vt 0.529672 0.350348
vt 0.566901 0.350348
vt 0.530858 0.437410
vt 0.725145 0.592510
vt 0.687916 0.592510
vt 0.689102 0.505448
vt 0.723959 0.628572
vt 0.812159 0.628572
vt 0.371428 0.350348
vt 0.372614 0.437410
vt 0.408657 0.592510
vt 0.371428 0.592510
vt 0.407471 0.628572
vt 0.495672 0.628572
vt 0.685714 0.036062
vt 0.686900 0.123124
vt 0.846160 0.314286
vt 0.846160 0.319124
vt 0.919724 0.685714
vt 0.846160 0.680876
vt 0.338019 0.395161
vt 0.361752 0.733180
vt 0.338019 0.709447
vt 0.361752 0.371428
vt 0.000000 0.733180
vt 0.371428 0.371428
vt 0.000000 0.000000
vt 0.371428 0.000000
vt 0.919724 0.319124
vt 0.993288 0.685714
vt 0.919724 0.680876
vt 0.371428 0.633410
vt 0.444992 1.000000
vt 0.371428 0.995162
vt 0.444992 0.633410
vt 0.518556 1.000000
vt 0.444992 0.995162
vt 0.562590 0.000000
vt 0.649652 0.036062
vt 0.685714 0.123124
vt 0.649652 0.278224
vt 0.562590 0.314286
vt 0.494552 0.314286
vt 0.371428 0.191162
vt 0.371428 0.123124
vt 0.407490 0.036062
vt 0.529672 0.628572
vt 0.495672 0.314286
vt 0.529796 0.628572
vt 0.495796 0.628572
vt 0.408781 0.592510
vt 0.372738 0.437410
vt 0.495796 0.314286
vt 0.843958 0.314286
vt 0.809958 0.000000
vt 0.709131 0.335008
vt 0.550887 0.607850
vt 0.706929 0.293564
vt 0.550887 0.335008
vt 0.709131 0.607850
vt 0.392643 0.335008
vt 0.392643 0.607850
vt 0.706929 0.020722
vt 0.846160 0.628572
vt 0.812159 0.314286
vt 0.919724 0.314286
vt 0.000000 0.371428
vt 0.993288 0.314286
vt 0.444992 0.628572
vt 0.518556 0.628572
s 0
usemtl Material.003
f 12/1/1 8/2/1 21/3/1
f 26/4/2 24/5/2 3/6/2
f 6/7/3 17/8/3 2/9/3
f 1/10/1 36/11/1 3/12/1
f 12/13/4 31/14/4 4/15/4
f 8/16/5 11/17/5 5/18/5
f 10/19/6 8/20/6 6/21/6
f 11/22/7 10/19/7 7/23/7
f 15/24/8 18/25/8 12/13/8
f 17/26/9 15/24/9 13/27/9
f 18/28/10 17/29/10 14/30/10
f 22/31/11 25/32/11 19/33/11
f 24/34/12 22/31/12 20/35/12
f 25/36/13 24/5/13 21/37/13
f 29/38/14 32/39/14 26/4/14
f 31/40/15 29/38/15 27/41/15
f 32/42/16 31/14/16 28/43/16
f 19/33/17 11/17/17 1/44/17
f 34/45/18 40/46/18 36/47/18
f 4/48/1 33/49/1 2/50/1
f 3/12/1 35/51/1 4/48/1
f 2/50/1 34/52/1 1/10/1
f 39/53/19 38/54/19 37/55/19
f 35/56/20 37/57/20 33/58/20
f 36/59/21 39/60/21 35/61/21
f 33/62/22 38/63/22 34/64/22
f 21/3/1 26/65/1 32/66/1
f 32/66/1 28/67/1 12/1/1
f 12/1/1 18/68/1 14/69/1
f 14/69/1 6/70/1 8/2/1
f 8/2/1 5/71/1 19/72/1
f 19/72/1 25/73/1 21/3/1
f 21/3/1 32/66/1 12/1/1
f 12/1/1 14/69/1 8/2/1
f 8/2/1 19/72/1 21/3/1
f 3/6/2 4/74/2 27/41/2
f 27/41/2 29/38/2 26/4/2
f 26/4/2 21/37/2 24/5/2
f 24/5/2 20/75/2 3/6/2
f 3/6/2 27/41/2 26/4/2
f 2/9/3 1/76/3 7/77/3
f 7/77/3 10/78/3 6/7/3
f 6/7/3 14/79/3 17/8/3
f 17/8/3 13/80/3 2/9/3
f 2/9/3 7/77/3 6/7/3
f 1/10/1 34/52/1 36/11/1
f 4/15/4 2/81/4 13/27/4
f 13/27/4 15/24/4 12/13/4
f 12/13/4 28/43/4 31/14/4
f 31/14/4 27/82/4 4/15/4
f 4/15/4 13/27/4 12/13/4
f 8/16/23 9/83/23 11/17/23
f 10/19/24 9/84/24 8/20/24
f 11/22/25 9/84/25 10/19/25
f 15/24/26 16/85/26 18/25/26
f 17/26/27 16/85/27 15/24/27
f 18/28/28 16/86/28 17/29/28
f 22/31/29 23/87/29 25/32/29
f 24/34/30 23/87/30 22/31/30
f 25/36/31 23/88/31 24/5/31
f 29/38/32 30/89/32 32/39/32
f 31/40/33 30/89/33 29/38/33
f 32/42/34 30/90/34 31/14/34
f 1/44/17 3/91/17 20/35/17
f 20/35/17 22/31/17 19/33/17
f 19/33/17 5/18/17 11/17/17
f 11/17/17 7/92/17 1/44/17
f 1/44/17 20/35/17 19/33/17
f 34/45/18 38/93/18 40/46/18
f 4/48/1 35/51/1 33/49/1
f 3/12/1 36/11/1 35/51/1
f 2/50/1 33/49/1 34/52/1
f 39/53/19 40/94/19 38/54/19
f 35/56/20 39/95/20 37/57/20
f 36/59/21 40/96/21 39/60/21
f 33/62/22 37/97/22 38/63/22
