# Blender 4.0.2
# www.blender.org
mtllib untitled.mtl
o Cube
v 0.297051 1.687158 -0.255459
v 0.591439 0.244892 -1.609419
v 1.179198 0.557637 1.139532
v 1.473585 -0.884628 -0.214427
v -1.473585 0.884628 0.214427
v -1.179198 -0.557637 -1.139532
v -0.591439 -0.244892 1.609419
v -0.297051 -1.687158 0.255459
vn -0.1472 0.7211 0.6770
vn 0.4411 -0.5648 0.6975
vn -0.8853 -0.4013 0.2349
vn 0.1472 -0.7211 -0.6770
vn 0.8853 0.4013 -0.2349
vn -0.4411 0.5648 -0.6975
vt 0.875000 0.500000
vt 0.625000 0.750000
vt 0.625000 0.500000
vt 0.375000 1.000000
vt 0.375000 0.750000
vt 0.625000 0.000000
vt 0.375000 0.250000
vt 0.375000 0.000000
vt 0.375000 0.500000
vt 0.125000 0.750000
vt 0.125000 0.500000
vt 0.625000 0.250000
vt 0.875000 0.750000
vt 0.625000 1.000000
s 0
usemtl Material
f 5/1/1 3/2/1 1/3/1
f 3/2/2 8/4/2 4/5/2
f 7/6/3 6/7/3 8/8/3
f 2/9/4 8/10/4 6/11/4
f 1/3/5 4/5/5 2/9/5
f 5/12/6 2/9/6 6/7/6
f 5/1/1 7/13/1 3/2/1
f 3/2/2 7/14/2 8/4/2
f 7/6/3 5/12/3 6/7/3
f 2/9/4 4/5/4 8/10/4
f 1/3/5 3/2/5 4/5/5
f 5/12/6 1/3/6 2/9/6
